<?xml version="1.0" standalone="no"?>
<!DOCTYPE svg PUBLIC "-//W3C//DTD SVG 1.1//EN" "http://www.w3.org/Graphics/SVG/1.1/DTD/svg11.dtd">
<svg width="100%" height="100%" version="1.1" xmlns="http://www.w3.org/2000/svg">
<rect x="154" y="25" width="92" height="22" style="fill:rgb(255,255,255);stroke:rgb(0,0,0);stroke-width:1"/>
<text x="200" y="36" style="font-family:Arial;font-size:8pt;fill:rgb(0,0,0);font-weight:bold;text-anchor:middle;dominant-baseline:central">zoteroVersion</text>
<line x1="156" y1="27" x2="164" y2="27" style="stroke:rgb(0,0,0);stroke-width:1"/>
<line x1="156" y1="29" x2="162" y2="29" style="stroke:rgb(0,0,0);stroke-width:1"/>
<line x1="156" y1="31" x2="162" y2="31" style="stroke:rgb(0,0,0);stroke-width:1"/>
<line x1="156" y1="33" x2="162" y2="33" style="stroke:rgb(0,0,0);stroke-width:1"/>

<rect x="154" y="77" width="44" height="22" style="fill:rgb(255,255,255);stroke:rgb(0,0,0);stroke-width:1"/>
<text x="176" y="88" style="font-family:Arial;font-size:8pt;fill:rgb(0,0,0);font-weight:bold;text-anchor:middle;dominant-baseline:central">date</text>
<line x1="156" y1="79" x2="164" y2="79" style="stroke:rgb(0,0,0);stroke-width:1"/>
<line x1="156" y1="81" x2="162" y2="81" style="stroke:rgb(0,0,0);stroke-width:1"/>
<line x1="156" y1="83" x2="162" y2="83" style="stroke:rgb(0,0,0);stroke-width:1"/>
<line x1="156" y1="85" x2="162" y2="85" style="stroke:rgb(0,0,0);stroke-width:1"/>

<rect x="594" y="132" width="82" height="22" style="fill:rgb(255,255,255);stroke:rgb(0,0,0);stroke-width:1;stroke-dasharray:4,1"/>
<rect x="591" y="129" width="82" height="22" style="fill:rgb(255,255,255);stroke:rgb(0,0,0);stroke-width:1;stroke-dasharray:4,1"/>
<text x="632" y="140" style="font-family:Arial;font-size:8pt;fill:rgb(0,0,0);font-weight:bold;text-anchor:middle;dominant-baseline:central">creatorType</text>
<text x="663" y="161" style="font-family:Arial;font-size:7.2pt;fill:rgb(0,0,0);text-anchor:end;dominant-baseline:central">0..∞</text>
<line x1="593" y1="131" x2="601" y2="131" style="stroke:rgb(0,0,0);stroke-width:1"/>
<line x1="593" y1="133" x2="599" y2="133" style="stroke:rgb(0,0,0);stroke-width:1"/>
<line x1="593" y1="135" x2="599" y2="135" style="stroke:rgb(0,0,0);stroke-width:1"/>
<line x1="593" y1="137" x2="599" y2="137" style="stroke:rgb(0,0,0);stroke-width:1"/>

<line x1="571" y1="140" x2="591" y2="140" style="stroke:rgb(0,0,0);stroke-width:1;stroke-linecap:round"/>
<path d="M537 130 L560 130 L566 136 L566 144 L560 150 L537 150 L531 144 L531 136 Z" style="fill:rgb(255,255,255);stroke:rgb(0,0,0);stroke-width:1"/>
<line x1="534" y1="140" x2="563" y2="140" style="stroke:rgb(0,0,0);stroke-width:1"/>
<ellipse cx="543" cy="140" rx="2" ry="2" style="rgb(0,0,0)"/>
<ellipse cx="548" cy="140" rx="2" ry="2" style="rgb(0,0,0)"/>
<ellipse cx="553" cy="140" rx="2" ry="2" style="rgb(0,0,0)"/>
<rect x="561" y="135" width="10" height="10" style="fill:rgb(255,255,255);stroke:rgb(0,0,0);stroke-width:1"/>
<line x1="563" y1="140" x2="569" y2="140" style="stroke:rgb(0,0,0);stroke-width:1"/>

<line x1="511" y1="140" x2="531" y2="140" style="stroke:rgb(0,0,0);stroke-width:1;stroke-linecap:round"/>
<rect x="460" y="132" width="49" height="22" style="fill:rgb(255,255,255);stroke:rgb(0,0,0);stroke-width:1;stroke-dasharray:4,1"/>
<rect x="457" y="129" width="49" height="22" style="fill:rgb(255,255,255);stroke:rgb(0,0,0);stroke-width:1;stroke-dasharray:4,1"/>
<text x="481.5" y="140" style="font-family:Arial;font-size:8pt;fill:rgb(0,0,0);font-weight:bold;text-anchor:middle;dominant-baseline:central">field</text>
<text x="501" y="161" style="font-family:Arial;font-size:7.2pt;fill:rgb(0,0,0);text-anchor:end;dominant-baseline:central">0..∞</text>
<line x1="459" y1="131" x2="467" y2="131" style="stroke:rgb(0,0,0);stroke-width:1"/>
<line x1="459" y1="133" x2="465" y2="133" style="stroke:rgb(0,0,0);stroke-width:1"/>
<line x1="459" y1="135" x2="465" y2="135" style="stroke:rgb(0,0,0);stroke-width:1"/>
<line x1="459" y1="137" x2="465" y2="137" style="stroke:rgb(0,0,0);stroke-width:1"/>
<rect x="501" y="135" width="10" height="10" style="fill:rgb(255,255,255);stroke:rgb(0,0,0);stroke-width:1"/>
<line x1="503" y1="140" x2="509" y2="140" style="stroke:rgb(0,0,0);stroke-width:1"/>

<line x1="437" y1="140" x2="457" y2="140" style="stroke:rgb(0,0,0);stroke-width:1;stroke-linecap:round"/>
<path d="M403 130 L426 130 L432 136 L432 144 L426 150 L403 150 L397 144 L397 136 Z" style="fill:rgb(255,255,255);stroke:rgb(0,0,0);stroke-width:1"/>
<line x1="400" y1="140" x2="429" y2="140" style="stroke:rgb(0,0,0);stroke-width:1"/>
<ellipse cx="409" cy="140" rx="2" ry="2" style="rgb(0,0,0)"/>
<ellipse cx="414" cy="140" rx="2" ry="2" style="rgb(0,0,0)"/>
<ellipse cx="419" cy="140" rx="2" ry="2" style="rgb(0,0,0)"/>
<rect x="427" y="135" width="10" height="10" style="fill:rgb(255,255,255);stroke:rgb(0,0,0);stroke-width:1"/>
<line x1="429" y1="140" x2="435" y2="140" style="stroke:rgb(0,0,0);stroke-width:1"/>

<line x1="377" y1="140" x2="397" y2="140" style="stroke:rgb(0,0,0);stroke-width:1;stroke-linecap:round"/>
<rect x="305" y="132" width="70" height="22" style="fill:rgb(255,255,255);stroke:rgb(0,0,0);stroke-width:1;stroke-dasharray:4,1"/>
<rect x="302" y="129" width="70" height="22" style="fill:rgb(255,255,255);stroke:rgb(0,0,0);stroke-width:1;stroke-dasharray:4,1"/>
<text x="337" y="140" style="font-family:Arial;font-size:8pt;fill:rgb(0,0,0);font-weight:bold;text-anchor:middle;dominant-baseline:central">typeMap</text>
<text x="367" y="161" style="font-family:Arial;font-size:7.2pt;fill:rgb(0,0,0);text-anchor:end;dominant-baseline:central">0..∞</text>
<line x1="304" y1="131" x2="312" y2="131" style="stroke:rgb(0,0,0);stroke-width:1"/>
<line x1="304" y1="133" x2="310" y2="133" style="stroke:rgb(0,0,0);stroke-width:1"/>
<line x1="304" y1="135" x2="310" y2="135" style="stroke:rgb(0,0,0);stroke-width:1"/>
<line x1="304" y1="137" x2="310" y2="137" style="stroke:rgb(0,0,0);stroke-width:1"/>
<rect x="367" y="135" width="10" height="10" style="fill:rgb(255,255,255);stroke:rgb(0,0,0);stroke-width:1"/>
<line x1="369" y1="140" x2="375" y2="140" style="stroke:rgb(0,0,0);stroke-width:1"/>

<line x1="282" y1="140" x2="302" y2="140" style="stroke:rgb(0,0,0);stroke-width:1;stroke-linecap:round"/>
<path d="M248 130 L271 130 L277 136 L277 144 L271 150 L248 150 L242 144 L242 136 Z" style="fill:rgb(255,255,255);stroke:rgb(0,0,0);stroke-width:1"/>
<line x1="245" y1="140" x2="274" y2="140" style="stroke:rgb(0,0,0);stroke-width:1"/>
<ellipse cx="254" cy="140" rx="2" ry="2" style="rgb(0,0,0)"/>
<ellipse cx="259" cy="140" rx="2" ry="2" style="rgb(0,0,0)"/>
<ellipse cx="264" cy="140" rx="2" ry="2" style="rgb(0,0,0)"/>
<rect x="272" y="135" width="10" height="10" style="fill:rgb(255,255,255);stroke:rgb(0,0,0);stroke-width:1"/>
<line x1="274" y1="140" x2="280" y2="140" style="stroke:rgb(0,0,0);stroke-width:1"/>

<line x1="222" y1="140" x2="242" y2="140" style="stroke:rgb(0,0,0);stroke-width:1;stroke-linecap:round"/>
<rect x="154" y="129" width="63" height="22" style="fill:rgb(255,255,255);stroke:rgb(0,0,0);stroke-width:1"/>
<text x="185.5" y="140" style="font-family:Arial;font-size:8pt;fill:rgb(0,0,0);font-weight:bold;text-anchor:middle;dominant-baseline:central">zTypes</text>
<rect x="212" y="135" width="10" height="10" style="fill:rgb(255,255,255);stroke:rgb(0,0,0);stroke-width:1"/>
<line x1="214" y1="140" x2="220" y2="140" style="stroke:rgb(0,0,0);stroke-width:1"/>

<rect x="329" y="184" width="44" height="22" style="fill:rgb(255,255,255);stroke:rgb(0,0,0);stroke-width:1;stroke-dasharray:4,1"/>
<rect x="326" y="181" width="44" height="22" style="fill:rgb(255,255,255);stroke:rgb(0,0,0);stroke-width:1;stroke-dasharray:4,1"/>
<text x="348" y="192" style="font-family:Arial;font-size:8pt;fill:rgb(0,0,0);font-weight:bold;text-anchor:middle;dominant-baseline:central">map</text>
<text x="360" y="213" style="font-family:Arial;font-size:7.2pt;fill:rgb(0,0,0);text-anchor:end;dominant-baseline:central">0..∞</text>
<line x1="328" y1="183" x2="336" y2="183" style="stroke:rgb(0,0,0);stroke-width:1"/>
<line x1="328" y1="185" x2="334" y2="185" style="stroke:rgb(0,0,0);stroke-width:1"/>
<line x1="328" y1="187" x2="334" y2="187" style="stroke:rgb(0,0,0);stroke-width:1"/>
<line x1="328" y1="189" x2="334" y2="189" style="stroke:rgb(0,0,0);stroke-width:1"/>

<line x1="306" y1="192" x2="326" y2="192" style="stroke:rgb(0,0,0);stroke-width:1;stroke-linecap:round"/>
<path d="M272 182 L295 182 L301 188 L301 196 L295 202 L272 202 L266 196 L266 188 Z" style="fill:rgb(255,255,255);stroke:rgb(0,0,0);stroke-width:1"/>
<line x1="269" y1="192" x2="298" y2="192" style="stroke:rgb(0,0,0);stroke-width:1"/>
<ellipse cx="278" cy="192" rx="2" ry="2" style="rgb(0,0,0)"/>
<ellipse cx="283" cy="192" rx="2" ry="2" style="rgb(0,0,0)"/>
<ellipse cx="288" cy="192" rx="2" ry="2" style="rgb(0,0,0)"/>
<rect x="296" y="187" width="10" height="10" style="fill:rgb(255,255,255);stroke:rgb(0,0,0);stroke-width:1"/>
<line x1="298" y1="192" x2="304" y2="192" style="stroke:rgb(0,0,0);stroke-width:1"/>

<line x1="246" y1="192" x2="266" y2="192" style="stroke:rgb(0,0,0);stroke-width:1;stroke-linecap:round"/>
<rect x="154" y="181" width="87" height="22" style="fill:rgb(255,255,255);stroke:rgb(0,0,0);stroke-width:1"/>
<text x="197.5" y="192" style="font-family:Arial;font-size:8pt;fill:rgb(0,0,0);font-weight:bold;text-anchor:middle;dominant-baseline:central">cslFieldMap</text>
<rect x="236" y="187" width="10" height="10" style="fill:rgb(255,255,255);stroke:rgb(0,0,0);stroke-width:1"/>
<line x1="238" y1="192" x2="244" y2="192" style="stroke:rgb(0,0,0);stroke-width:1"/>

<rect x="341" y="236" width="44" height="22" style="fill:rgb(255,255,255);stroke:rgb(0,0,0);stroke-width:1;stroke-dasharray:4,1"/>
<rect x="338" y="233" width="44" height="22" style="fill:rgb(255,255,255);stroke:rgb(0,0,0);stroke-width:1;stroke-dasharray:4,1"/>
<text x="360" y="244" style="font-family:Arial;font-size:8pt;fill:rgb(0,0,0);font-weight:bold;text-anchor:middle;dominant-baseline:central">map</text>
<text x="372" y="265" style="font-family:Arial;font-size:7.2pt;fill:rgb(0,0,0);text-anchor:end;dominant-baseline:central">0..∞</text>
<line x1="340" y1="235" x2="348" y2="235" style="stroke:rgb(0,0,0);stroke-width:1"/>
<line x1="340" y1="237" x2="346" y2="237" style="stroke:rgb(0,0,0);stroke-width:1"/>
<line x1="340" y1="239" x2="346" y2="239" style="stroke:rgb(0,0,0);stroke-width:1"/>
<line x1="340" y1="241" x2="346" y2="241" style="stroke:rgb(0,0,0);stroke-width:1"/>

<line x1="318" y1="244" x2="338" y2="244" style="stroke:rgb(0,0,0);stroke-width:1;stroke-linecap:round"/>
<path d="M284 234 L307 234 L313 240 L313 248 L307 254 L284 254 L278 248 L278 240 Z" style="fill:rgb(255,255,255);stroke:rgb(0,0,0);stroke-width:1"/>
<line x1="281" y1="244" x2="310" y2="244" style="stroke:rgb(0,0,0);stroke-width:1"/>
<ellipse cx="290" cy="244" rx="2" ry="2" style="rgb(0,0,0)"/>
<ellipse cx="295" cy="244" rx="2" ry="2" style="rgb(0,0,0)"/>
<ellipse cx="300" cy="244" rx="2" ry="2" style="rgb(0,0,0)"/>
<rect x="308" y="239" width="10" height="10" style="fill:rgb(255,255,255);stroke:rgb(0,0,0);stroke-width:1"/>
<line x1="310" y1="244" x2="316" y2="244" style="stroke:rgb(0,0,0);stroke-width:1"/>

<line x1="258" y1="244" x2="278" y2="244" style="stroke:rgb(0,0,0);stroke-width:1;stroke-linecap:round"/>
<rect x="154" y="233" width="99" height="22" style="fill:rgb(255,255,255);stroke:rgb(0,0,0);stroke-width:1"/>
<text x="203.5" y="244" style="font-family:Arial;font-size:8pt;fill:rgb(0,0,0);font-weight:bold;text-anchor:middle;dominant-baseline:central">cslCreatorMap</text>
<rect x="248" y="239" width="10" height="10" style="fill:rgb(255,255,255);stroke:rgb(0,0,0);stroke-width:1"/>
<line x1="250" y1="244" x2="256" y2="244" style="stroke:rgb(0,0,0);stroke-width:1"/>

<rect x="374" y="288" width="54" height="22" style="fill:rgb(255,255,255);stroke:rgb(0,0,0);stroke-width:1;stroke-dasharray:4,1"/>
<rect x="371" y="285" width="54" height="22" style="fill:rgb(255,255,255);stroke:rgb(0,0,0);stroke-width:1;stroke-dasharray:4,1"/>
<text x="398" y="296" style="font-family:Arial;font-size:8pt;fill:rgb(0,0,0);font-weight:bold;text-anchor:middle;dominant-baseline:central">remap</text>
<text x="415" y="317" style="font-family:Arial;font-size:7.2pt;fill:rgb(0,0,0);text-anchor:end;dominant-baseline:central">0..∞</text>
<line x1="373" y1="287" x2="381" y2="287" style="stroke:rgb(0,0,0);stroke-width:1"/>
<line x1="373" y1="289" x2="379" y2="289" style="stroke:rgb(0,0,0);stroke-width:1"/>
<line x1="373" y1="291" x2="379" y2="291" style="stroke:rgb(0,0,0);stroke-width:1"/>
<line x1="373" y1="293" x2="379" y2="293" style="stroke:rgb(0,0,0);stroke-width:1"/>

<line x1="351" y1="296" x2="371" y2="296" style="stroke:rgb(0,0,0);stroke-width:1;stroke-linecap:round"/>
<path d="M317 286 L340 286 L346 292 L346 300 L340 306 L317 306 L311 300 L311 292 Z" style="fill:rgb(255,255,255);stroke:rgb(0,0,0);stroke-width:1"/>
<line x1="314" y1="296" x2="343" y2="296" style="stroke:rgb(0,0,0);stroke-width:1"/>
<ellipse cx="323" cy="296" rx="2" ry="2" style="rgb(0,0,0)"/>
<ellipse cx="328" cy="296" rx="2" ry="2" style="rgb(0,0,0)"/>
<ellipse cx="333" cy="296" rx="2" ry="2" style="rgb(0,0,0)"/>
<rect x="341" y="291" width="10" height="10" style="fill:rgb(255,255,255);stroke:rgb(0,0,0);stroke-width:1"/>
<line x1="343" y1="296" x2="349" y2="296" style="stroke:rgb(0,0,0);stroke-width:1"/>

<line x1="291" y1="296" x2="311" y2="296" style="stroke:rgb(0,0,0);stroke-width:1;stroke-linecap:round"/>
<rect x="154" y="285" width="132" height="22" style="fill:rgb(255,255,255);stroke:rgb(0,0,0);stroke-width:1"/>
<text x="220" y="296" style="font-family:Arial;font-size:8pt;fill:rgb(0,0,0);font-weight:bold;text-anchor:middle;dominant-baseline:central">citeprocJStoCSLmap</text>
<rect x="281" y="291" width="10" height="10" style="fill:rgb(255,255,255);stroke:rgb(0,0,0);stroke-width:1"/>
<line x1="283" y1="296" x2="289" y2="296" style="stroke:rgb(0,0,0);stroke-width:1"/>

<rect x="470" y="340" width="44" height="22" style="fill:rgb(255,255,255);stroke:rgb(0,0,0);stroke-width:1;stroke-dasharray:4,1"/>
<rect x="467" y="337" width="44" height="22" style="fill:rgb(255,255,255);stroke:rgb(0,0,0);stroke-width:1;stroke-dasharray:4,1"/>
<text x="489" y="348" style="font-family:Arial;font-size:8pt;fill:rgb(0,0,0);font-weight:bold;text-anchor:middle;dominant-baseline:central">type</text>
<text x="501" y="369" style="font-family:Arial;font-size:7.2pt;fill:rgb(0,0,0);text-anchor:end;dominant-baseline:central">0..∞</text>
<line x1="469" y1="339" x2="477" y2="339" style="stroke:rgb(0,0,0);stroke-width:1"/>
<line x1="469" y1="341" x2="475" y2="341" style="stroke:rgb(0,0,0);stroke-width:1"/>
<line x1="469" y1="343" x2="475" y2="343" style="stroke:rgb(0,0,0);stroke-width:1"/>
<line x1="469" y1="345" x2="475" y2="345" style="stroke:rgb(0,0,0);stroke-width:1"/>

<line x1="447" y1="348" x2="467" y2="348" style="stroke:rgb(0,0,0);stroke-width:1;stroke-linecap:round"/>
<path d="M413 338 L436 338 L442 344 L442 352 L436 358 L413 358 L407 352 L407 344 Z" style="fill:rgb(255,255,255);stroke:rgb(0,0,0);stroke-width:1"/>
<line x1="410" y1="348" x2="439" y2="348" style="stroke:rgb(0,0,0);stroke-width:1"/>
<ellipse cx="419" cy="348" rx="2" ry="2" style="rgb(0,0,0)"/>
<ellipse cx="424" cy="348" rx="2" ry="2" style="rgb(0,0,0)"/>
<ellipse cx="429" cy="348" rx="2" ry="2" style="rgb(0,0,0)"/>
<rect x="437" y="343" width="10" height="10" style="fill:rgb(255,255,255);stroke:rgb(0,0,0);stroke-width:1"/>
<line x1="439" y1="348" x2="445" y2="348" style="stroke:rgb(0,0,0);stroke-width:1"/>

<line x1="387" y1="348" x2="407" y2="348" style="stroke:rgb(0,0,0);stroke-width:1;stroke-linecap:round"/>
<rect x="303" y="337" width="79" height="22" style="fill:rgb(255,255,255);stroke:rgb(0,0,0);stroke-width:1"/>
<text x="342.5" y="348" style="font-family:Arial;font-size:8pt;fill:rgb(0,0,0);font-weight:bold;text-anchor:middle;dominant-baseline:central">itemTypes</text>
<rect x="377" y="343" width="10" height="10" style="fill:rgb(255,255,255);stroke:rgb(0,0,0);stroke-width:1"/>
<line x1="379" y1="348" x2="385" y2="348" style="stroke:rgb(0,0,0);stroke-width:1"/>

<rect x="440" y="392" width="38" height="22" style="fill:rgb(255,255,255);stroke:rgb(0,0,0);stroke-width:1;stroke-dasharray:4,1"/>
<rect x="437" y="389" width="38" height="22" style="fill:rgb(255,255,255);stroke:rgb(0,0,0);stroke-width:1;stroke-dasharray:4,1"/>
<text x="456" y="400" style="font-family:Arial;font-size:8pt;fill:rgb(0,0,0);font-weight:bold;text-anchor:middle;dominant-baseline:central">var</text>
<text x="465" y="421" style="font-family:Arial;font-size:7.2pt;fill:rgb(0,0,0);text-anchor:end;dominant-baseline:central">0..∞</text>
<line x1="439" y1="391" x2="447" y2="391" style="stroke:rgb(0,0,0);stroke-width:1"/>
<line x1="439" y1="393" x2="445" y2="393" style="stroke:rgb(0,0,0);stroke-width:1"/>
<line x1="439" y1="395" x2="445" y2="395" style="stroke:rgb(0,0,0);stroke-width:1"/>
<line x1="439" y1="397" x2="445" y2="397" style="stroke:rgb(0,0,0);stroke-width:1"/>

<line x1="417" y1="400" x2="437" y2="400" style="stroke:rgb(0,0,0);stroke-width:1;stroke-linecap:round"/>
<path d="M383 390 L406 390 L412 396 L412 404 L406 410 L383 410 L377 404 L377 396 Z" style="fill:rgb(255,255,255);stroke:rgb(0,0,0);stroke-width:1"/>
<line x1="380" y1="400" x2="409" y2="400" style="stroke:rgb(0,0,0);stroke-width:1"/>
<ellipse cx="389" cy="400" rx="2" ry="2" style="rgb(0,0,0)"/>
<ellipse cx="394" cy="400" rx="2" ry="2" style="rgb(0,0,0)"/>
<ellipse cx="399" cy="400" rx="2" ry="2" style="rgb(0,0,0)"/>
<rect x="407" y="395" width="10" height="10" style="fill:rgb(255,255,255);stroke:rgb(0,0,0);stroke-width:1"/>
<line x1="409" y1="400" x2="415" y2="400" style="stroke:rgb(0,0,0);stroke-width:1"/>

<line x1="357" y1="400" x2="377" y2="400" style="stroke:rgb(0,0,0);stroke-width:1;stroke-linecap:round"/>
<rect x="303" y="389" width="49" height="22" style="fill:rgb(255,255,255);stroke:rgb(0,0,0);stroke-width:1"/>
<text x="327.5" y="400" style="font-family:Arial;font-size:8pt;fill:rgb(0,0,0);font-weight:bold;text-anchor:middle;dominant-baseline:central">vars</text>
<rect x="347" y="395" width="10" height="10" style="fill:rgb(255,255,255);stroke:rgb(0,0,0);stroke-width:1"/>
<line x1="349" y1="400" x2="355" y2="400" style="stroke:rgb(0,0,0);stroke-width:1"/>

<line x1="293" y1="348" x2="303" y2="348" style="stroke:rgb(0,0,0);stroke-width:1;stroke-linecap:round"/>
<line x1="293" y1="400" x2="303" y2="400" style="stroke:rgb(0,0,0);stroke-width:1;stroke-linecap:round"/>
<line x1="293" y1="348" x2="293" y2="400" style="stroke:rgb(0,0,0);stroke-width:1;stroke-linecap:round"/>
<line x1="283" y1="374" x2="293" y2="374" style="stroke:rgb(0,0,0);stroke-width:1;stroke-linecap:round"/>
<path d="M249 364 L272 364 L278 370 L278 378 L272 384 L249 384 L243 378 L243 370 Z" style="fill:rgb(255,255,255);stroke:rgb(0,0,0);stroke-width:1"/>
<line x1="246" y1="374" x2="275" y2="374" style="stroke:rgb(0,0,0);stroke-width:1"/>
<ellipse cx="255" cy="374" rx="2" ry="2" style="rgb(0,0,0)"/>
<ellipse cx="260" cy="374" rx="2" ry="2" style="rgb(0,0,0)"/>
<ellipse cx="265" cy="374" rx="2" ry="2" style="rgb(0,0,0)"/>
<rect x="273" y="369" width="10" height="10" style="fill:rgb(255,255,255);stroke:rgb(0,0,0);stroke-width:1"/>
<line x1="275" y1="374" x2="281" y2="374" style="stroke:rgb(0,0,0);stroke-width:1"/>

<line x1="223" y1="374" x2="243" y2="374" style="stroke:rgb(0,0,0);stroke-width:1;stroke-linecap:round"/>
<rect x="154" y="363" width="64" height="22" style="fill:rgb(255,255,255);stroke:rgb(0,0,0);stroke-width:1"/>
<text x="186" y="374" style="font-family:Arial;font-size:8pt;fill:rgb(0,0,0);font-weight:bold;text-anchor:middle;dominant-baseline:central">cslVars</text>
<rect x="213" y="369" width="10" height="10" style="fill:rgb(255,255,255);stroke:rgb(0,0,0);stroke-width:1"/>
<line x1="215" y1="374" x2="221" y2="374" style="stroke:rgb(0,0,0);stroke-width:1"/>

<line x1="144" y1="36" x2="154" y2="36" style="stroke:rgb(0,0,0);stroke-width:1;stroke-linecap:round"/>
<line x1="144" y1="88" x2="154" y2="88" style="stroke:rgb(0,0,0);stroke-width:1;stroke-linecap:round"/>
<line x1="144" y1="140" x2="154" y2="140" style="stroke:rgb(0,0,0);stroke-width:1;stroke-linecap:round"/>
<line x1="144" y1="192" x2="154" y2="192" style="stroke:rgb(0,0,0);stroke-width:1;stroke-linecap:round"/>
<line x1="144" y1="244" x2="154" y2="244" style="stroke:rgb(0,0,0);stroke-width:1;stroke-linecap:round"/>
<line x1="144" y1="296" x2="154" y2="296" style="stroke:rgb(0,0,0);stroke-width:1;stroke-linecap:round"/>
<line x1="144" y1="374" x2="154" y2="374" style="stroke:rgb(0,0,0);stroke-width:1;stroke-linecap:round"/>
<line x1="144" y1="36" x2="144" y2="374" style="stroke:rgb(0,0,0);stroke-width:1;stroke-linecap:round"/>
<line x1="134" y1="218" x2="144" y2="218" style="stroke:rgb(0,0,0);stroke-width:1;stroke-linecap:round"/>
<path d="M100 208 L123 208 L129 214 L129 222 L123 228 L100 228 L94 222 L94 214 Z" style="fill:rgb(255,255,255);stroke:rgb(0,0,0);stroke-width:1"/>
<line x1="97" y1="218" x2="126" y2="218" style="stroke:rgb(0,0,0);stroke-width:1"/>
<ellipse cx="106" cy="218" rx="2" ry="2" style="rgb(0,0,0)"/>
<ellipse cx="111" cy="218" rx="2" ry="2" style="rgb(0,0,0)"/>
<ellipse cx="116" cy="218" rx="2" ry="2" style="rgb(0,0,0)"/>
<rect x="124" y="213" width="10" height="10" style="fill:rgb(255,255,255);stroke:rgb(0,0,0);stroke-width:1"/>
<line x1="126" y1="218" x2="132" y2="218" style="stroke:rgb(0,0,0);stroke-width:1"/>

<line x1="74" y1="218" x2="94" y2="218" style="stroke:rgb(0,0,0);stroke-width:1;stroke-linecap:round"/>
<rect x="20" y="207" width="49" height="22" style="fill:rgb(255,255,255);stroke:rgb(0,0,0);stroke-width:1"/>
<text x="44.5" y="218" style="font-family:Arial;font-size:8pt;fill:rgb(0,0,0);font-weight:bold;text-anchor:middle;dominant-baseline:central">map</text>
<rect x="64" y="213" width="10" height="10" style="fill:rgb(255,255,255);stroke:rgb(0,0,0);stroke-width:1"/>
<line x1="66" y1="218" x2="72" y2="218" style="stroke:rgb(0,0,0);stroke-width:1"/>
</svg>
